<svg xmlns="http://www.w3.org/2000/svg" width="700" height="300"><style><![CDATA[
        @import url('https://fonts.googleapis.com/css2?family=Roboto&display=swap');
        text {
            font-family: "Roboto, -apple-system, BlinkMacSystemFont, Tahoma, sans-serif";
        }
        .axis-label {
            font-size: 1.3em;
        }
        .legend {
            font-size: 1.1em;
        }
    ]]></style><g style="transform: translate(50px,30px);"><path d="M0,220L2.42193,218.58974358974356C4.84386,217.17948717948718,9.68772,214.35897435897436,16.720515000000002,211.53846153846155C23.75331,208.71794871794873,32.97504,205.8974358974359,42.299565,203.0769230769231C51.62409,200.25641025641028,61.05141,197.43589743589746,69.87603,194.6153846153846C78.70065,191.7948717948718,86.92257,188.97435897435898,95.05797,186.15384615384616C103.19337,183.33333333333334,111.24225,180.51282051282053,119.26697999999999,177.6923076923077C127.29171000000001,174.8717948717949,135.29229,172.05128205128207,143.257485,169.23076923076925C151.22268,166.4102564102564,159.15249,163.5897435897436,167.27256,160.76923076923077C175.39263000000003,157.94871794871793,183.70296,155.1282051282051,191.98011,152.3076923076923C200.25726,149.48717948717947,208.50123,146.66666666666666,216.68157000000005,143.84615384615384C224.86191,141.02564102564102,232.97862,138.2051282051282,241.156755,135.3846153846154C249.33489,132.56410256410257,257.57445,129.74358974358972,265.869555,126.9230769230769C274.16465999999997,124.10256410256409,282.51531,121.28205128205127,290.767575,118.46153846153845C299.01984,115.64102564102564,307.17371999999995,112.82051282051282,315.33726,110C323.50079999999997,107.17948717948718,331.67400000000004,104.35897435897436,339.890775,101.53846153846155C348.10755,98.71794871794873,356.3679,95.89743589743591,364.5341700000001,93.0769230769231C372.70044000000007,90.25641025641028,380.77263,87.43589743589745,388.979955,84.61538461538461C397.18728000000004,81.79487179487178,405.52973999999995,78.97435897435896,413.70892499999997,76.15384615384615C421.88811000000004,73.33333333333333,429.90402,70.51282051282051,437.9928,67.6923076923077C446.08158000000003,64.87179487179488,454.24323000000004,62.051282051282065,462.35878500000007,59.23076923076923C470.47434,56.41025641025641,478.5438,53.58974358974359,486.49944,50.76923076923077C494.45508,47.948717948717935,502.29690000000005,45.12820512820512,510.151635,42.30769230769231C518.0063700000001,39.48717948717948,525.8740200000001,36.666666666666664,533.85297,33.84615384615385C541.83192,31.025641025641033,549.9221699999999,28.205128205128215,558.56031,25.384615384615387C567.19845,22.56410256410257,576.38448,19.74358974358974,585.632145,16.923076923076916C594.87981,14.102564102564093,604.18911,11.282051282051276,611.594025,8.461538461538456C618.9989400000001,5.641025641025638,624.4994700000001,2.820512820512819,627.249735,1.4102564102564095L630,0" fill="none" stroke="#4dc9f6" stroke-width="2"></path><path d="M0,220L0.55419,218.58974358974356C1.10838,217.17948717948718,2.21676,214.35897435897436,8.216985,211.53846153846155C14.217210000000001,208.71794871794873,25.109280000000002,205.8974358974359,38.24289,203.0769230769231C51.3765,200.25641025641028,66.75165,197.43589743589746,82.90506,194.6153846153846C99.05847,191.7948717948718,115.99014,188.97435897435898,132.24844499999998,186.15384615384616C148.50674999999998,183.33333333333334,164.09169,180.51282051282053,179.71065,177.6923076923077C195.32961,174.8717948717949,210.98259,172.05128205128207,226.99088999999995,169.23076923076925C242.99919,166.4102564102564,259.36281,163.5897435897436,275.60420999999997,160.76923076923077C291.84561,157.94871794871793,307.96479,155.1282051282051,324.43235999999996,152.3076923076923C340.89993,149.48717948717947,357.71589,146.66666666666666,374.682525,143.84615384615384C391.64916,141.02564102564102,408.76647,138.2051282051282,425.91507,135.3846153846154C443.06367,132.56410256410257,460.24356000000006,129.74358974358972,477.55827,126.9230769230769C494.8729799999999,124.10256410256409,512.32251,121.28205128205127,529.9648199999999,118.46153846153845C547.60713,115.64102564102564,565.44222,112.82051282051282,582.14688,110C598.85154,107.17948717948718,614.4257699999999,104.35897435897436,622.212885,102.94871794871796L630,101.53846153846155" fill="none" stroke="#f67019" stroke-width="2"></path><path d="M0,220L3.6974700000000005,218.58974358974356C7.394940000000001,217.17948717948718,14.789880000000002,214.35897435897436,27.359850000000005,211.53846153846155C39.92982,208.71794871794873,57.674820000000004,205.8974358974359,81.8349,203.0769230769231C105.99498,200.25641025641028,136.57014,197.43589743589746,168.228375,194.6153846153846C199.88661000000002,191.7948717948718,232.62792000000002,188.97435897435898,264.80475,186.15384615384616C296.98158000000006,183.33333333333334,328.59393000000006,180.51282051282053,359.54604,177.6923076923077C390.49815000000007,174.8717948717949,420.79001999999997,172.05128205128207,449.97015000000005,169.23076923076925C479.15028,166.4102564102564,507.21867,163.5897435897436,533.82126,160.76923076923077C560.42385,157.94871794871793,585.56064,155.1282051282051,601.34613,152.3076923076923C617.13162,149.48717948717947,623.56581,146.66666666666666,626.782905,145.25641025641025L630,143.84615384615384" fill="none" stroke="#f53794" stroke-width="2"></path><path d="M0,220L2.03532,218.58974358974356C4.07064,217.17948717948718,8.14128,214.35897435897436,35.13321,211.53846153846155C62.12514000000001,208.71794871794873,112.03836000000001,205.8974358974359,163.67263499999999,203.0769230769231C215.30691000000002,200.25641025641028,268.66224,197.43589743589746,318.197775,194.6153846153846C367.73331,191.7948717948718,413.44905,188.97435897435898,455.55079500000005,186.15384615384616C497.65254000000004,183.33333333333334,536.14029,180.51282051282053,564.612825,177.6923076923077C593.08536,174.8717948717949,611.54268,172.05128205128207,620.77134,170.64102564102564L630,169.23076923076923" fill="none" stroke="#537bc4" stroke-width="2"></path><g fill="none" font-size="10" font-family="sans-serif" text-anchor="end"><path class="domain" stroke="currentColor" d="M-6,220.5H0.5V0.5H-6"></path><g class="tick" opacity="1" transform="translate(0,220.5)"><line stroke="currentColor" x2="-6"></line><text fill="currentColor" x="-9" dy="0.32em">0</text></g><g class="tick" opacity="1" transform="translate(0,203.5769230769231)"><line stroke="currentColor" x2="-6"></line><text fill="currentColor" x="-9" dy="0.32em">2</text></g><g class="tick" opacity="1" transform="translate(0,186.65384615384616)"><line stroke="currentColor" x2="-6"></line><text fill="currentColor" x="-9" dy="0.32em">4</text></g><g class="tick" opacity="1" transform="translate(0,169.73076923076923)"><line stroke="currentColor" x2="-6"></line><text fill="currentColor" x="-9" dy="0.32em">6</text></g><g class="tick" opacity="1" transform="translate(0,152.8076923076923)"><line stroke="currentColor" x2="-6"></line><text fill="currentColor" x="-9" dy="0.32em">8</text></g><g class="tick" opacity="1" transform="translate(0,135.8846153846154)"><line stroke="currentColor" x2="-6"></line><text fill="currentColor" x="-9" dy="0.32em">10</text></g><g class="tick" opacity="1" transform="translate(0,118.96153846153845)"><line stroke="currentColor" x2="-6"></line><text fill="currentColor" x="-9" dy="0.32em">12</text></g><g class="tick" opacity="1" transform="translate(0,102.03846153846155)"><line stroke="currentColor" x2="-6"></line><text fill="currentColor" x="-9" dy="0.32em">14</text></g><g class="tick" opacity="1" transform="translate(0,85.11538461538461)"><line stroke="currentColor" x2="-6"></line><text fill="currentColor" x="-9" dy="0.32em">16</text></g><g class="tick" opacity="1" transform="translate(0,68.1923076923077)"><line stroke="currentColor" x2="-6"></line><text fill="currentColor" x="-9" dy="0.32em">18</text></g><g class="tick" opacity="1" transform="translate(0,51.26923076923076)"><line stroke="currentColor" x2="-6"></line><text fill="currentColor" x="-9" dy="0.32em">20</text></g><g class="tick" opacity="1" transform="translate(0,34.34615384615385)"><line stroke="currentColor" x2="-6"></line><text fill="currentColor" x="-9" dy="0.32em">22</text></g><g class="tick" opacity="1" transform="translate(0,17.423076923076913)"><line stroke="currentColor" x2="-6"></line><text fill="currentColor" x="-9" dy="0.32em">24</text></g><g class="tick" opacity="1" transform="translate(0,0.5)"><line stroke="currentColor" x2="-6"></line><text fill="currentColor" x="-9" dy="0.32em">26</text></g></g><g fill="none" font-size="10" font-family="sans-serif" text-anchor="middle" style="transform: translateY(220px);"><path class="domain" stroke="currentColor" d="M0.5,6V0.5H630.5V6"></path><g class="tick" opacity="1" transform="translate(0.5,0)"><line stroke="currentColor" y2="6"></line><text fill="currentColor" y="9" dy="0.71em">0K</text></g><g class="tick" opacity="1" transform="translate(63.5,0)"><line stroke="currentColor" y2="6"></line><text fill="currentColor" y="9" dy="0.71em">100K</text></g><g class="tick" opacity="1" transform="translate(126.5,0)"><line stroke="currentColor" y2="6"></line><text fill="currentColor" y="9" dy="0.71em">200K</text></g><g class="tick" opacity="1" transform="translate(189.5,0)"><line stroke="currentColor" y2="6"></line><text fill="currentColor" y="9" dy="0.71em">300K</text></g><g class="tick" opacity="1" transform="translate(252.5,0)"><line stroke="currentColor" y2="6"></line><text fill="currentColor" y="9" dy="0.71em">400K</text></g><g class="tick" opacity="1" transform="translate(315.5,0)"><line stroke="currentColor" y2="6"></line><text fill="currentColor" y="9" dy="0.71em">500K</text></g><g class="tick" opacity="1" transform="translate(378.5,0)"><line stroke="currentColor" y2="6"></line><text fill="currentColor" y="9" dy="0.71em">600K</text></g><g class="tick" opacity="1" transform="translate(441.5,0)"><line stroke="currentColor" y2="6"></line><text fill="currentColor" y="9" dy="0.71em">700K</text></g><g class="tick" opacity="1" transform="translate(504.5,0)"><line stroke="currentColor" y2="6"></line><text fill="currentColor" y="9" dy="0.71em">800K</text></g><g class="tick" opacity="1" transform="translate(567.5,0)"><line stroke="currentColor" y2="6"></line><text fill="currentColor" y="9" dy="0.71em">900K</text></g><g class="tick" opacity="1" transform="translate(630.5,0)"><line stroke="currentColor" y2="6"></line><text fill="currentColor" y="9" dy="0.71em">1000K</text></g></g><g stroke-width="1" stroke-opacity="0.05" transform="translate(0,220)" fill="none" font-size="10" font-family="sans-serif" text-anchor="middle"><path class="domain" stroke="currentColor" d="M0.5,-220V0.5H630.5V-220"></path><g class="tick" opacity="1" transform="translate(0.5,0)"><line stroke="currentColor" y2="-220"></line><text fill="currentColor" y="3" dy="0.71em"></text></g><g class="tick" opacity="1" transform="translate(126.5,0)"><line stroke="currentColor" y2="-220"></line><text fill="currentColor" y="3" dy="0.71em"></text></g><g class="tick" opacity="1" transform="translate(252.5,0)"><line stroke="currentColor" y2="-220"></line><text fill="currentColor" y="3" dy="0.71em"></text></g><g class="tick" opacity="1" transform="translate(378.5,0)"><line stroke="currentColor" y2="-220"></line><text fill="currentColor" y="3" dy="0.71em"></text></g><g class="tick" opacity="1" transform="translate(504.5,0)"><line stroke="currentColor" y2="-220"></line><text fill="currentColor" y="3" dy="0.71em"></text></g><g class="tick" opacity="1" transform="translate(630.5,0)"><line stroke="currentColor" y2="-220"></line><text fill="currentColor" y="3" dy="0.71em"></text></g></g><g stroke-width="1" stroke-opacity="0.05" fill="none" font-size="10" font-family="sans-serif" text-anchor="end"><path class="domain" stroke="currentColor" d="M630,220.5H0.5V0.5H630"></path><g class="tick" opacity="1" transform="translate(0,220.5)"><line stroke="currentColor" x2="630"></line><text fill="currentColor" x="-3" dy="0.32em"></text></g><g class="tick" opacity="1" transform="translate(0,203.5769230769231)"><line stroke="currentColor" x2="630"></line><text fill="currentColor" x="-3" dy="0.32em"></text></g><g class="tick" opacity="1" transform="translate(0,186.65384615384616)"><line stroke="currentColor" x2="630"></line><text fill="currentColor" x="-3" dy="0.32em"></text></g><g class="tick" opacity="1" transform="translate(0,169.73076923076923)"><line stroke="currentColor" x2="630"></line><text fill="currentColor" x="-3" dy="0.32em"></text></g><g class="tick" opacity="1" transform="translate(0,152.8076923076923)"><line stroke="currentColor" x2="630"></line><text fill="currentColor" x="-3" dy="0.32em"></text></g><g class="tick" opacity="1" transform="translate(0,135.8846153846154)"><line stroke="currentColor" x2="630"></line><text fill="currentColor" x="-3" dy="0.32em"></text></g><g class="tick" opacity="1" transform="translate(0,118.96153846153845)"><line stroke="currentColor" x2="630"></line><text fill="currentColor" x="-3" dy="0.32em"></text></g><g class="tick" opacity="1" transform="translate(0,102.03846153846155)"><line stroke="currentColor" x2="630"></line><text fill="currentColor" x="-3" dy="0.32em"></text></g><g class="tick" opacity="1" transform="translate(0,85.11538461538461)"><line stroke="currentColor" x2="630"></line><text fill="currentColor" x="-3" dy="0.32em"></text></g><g class="tick" opacity="1" transform="translate(0,68.1923076923077)"><line stroke="currentColor" x2="630"></line><text fill="currentColor" x="-3" dy="0.32em"></text></g><g class="tick" opacity="1" transform="translate(0,51.26923076923076)"><line stroke="currentColor" x2="630"></line><text fill="currentColor" x="-3" dy="0.32em"></text></g><g class="tick" opacity="1" transform="translate(0,34.34615384615385)"><line stroke="currentColor" x2="630"></line><text fill="currentColor" x="-3" dy="0.32em"></text></g><g class="tick" opacity="1" transform="translate(0,17.423076923076913)"><line stroke="currentColor" x2="630"></line><text fill="currentColor" x="-3" dy="0.32em"></text></g><g class="tick" opacity="1" transform="translate(0,0.5)"><line stroke="currentColor" x2="630"></line><text fill="currentColor" x="-3" dy="0.32em"></text></g></g></g><text text-anchor="middle" class="axis-label" y="20" x="-110" transform="rotate(-90)">Minutes</text><text text-anchor="middle" class="axis-label" x="350" y="294">Scraped URLs</text><g style="transform: translate(0px,10px);"><text text-anchor="end" x="365" y="7.5" dy="0.35em" class="legend">Number of scraper instances:</text><rect x="375" width="15" height="15" fill="#4dc9f6"></rect><text text-anchor="start" x="395" y="7.5" dy="0.35em" class="legend">1</text><rect x="425" width="15" height="15" fill="#f67019"></rect><text text-anchor="start" x="445" y="7.5" dy="0.35em" class="legend">2</text><rect x="475" width="15" height="15" fill="#f53794"></rect><text text-anchor="start" x="495" y="7.5" dy="0.35em" class="legend">4</text><rect x="525" width="15" height="15" fill="#537bc4"></rect><text text-anchor="start" x="545" y="7.5" dy="0.35em" class="legend">8</text></g></svg>