<svg xmlns="http://www.w3.org/2000/svg" width="700" height="300"><style><![CDATA[
        @import url('https://fonts.googleapis.com/css2?family=Roboto&display=swap');
        text {
            font-family: "Roboto, -apple-system, BlinkMacSystemFont, Tahoma, sans-serif";
        }
        .axis-label {
            font-size: 1.3em;
        }
        .legend {
            font-size: 1.1em;
        }
    ]]></style><g style="transform: translate(50px,30px);"><path d="M0,220L2.3407649999999998,219.54166666666666C4.6815299999999995,219.08333333333334,9.363059999999999,218.16666666666666,15.017204999999999,217.25C20.67135,216.33333333333334,27.298109999999998,215.41666666666666,33.751725,214.5C40.20534,213.58333333333334,46.485809999999994,212.66666666666666,52.597649999999994,211.75C58.709489999999995,210.83333333333334,64.6527,209.91666666666666,70.33782000000001,209C76.02294,208.08333333333334,81.44997,207.16666666666666,86.74973999999999,206.25C92.04951,205.33333333333334,97.22202,204.41666666666666,102.17802,203.5C107.13402,202.58333333333334,111.87351,201.66666666666666,116.316165,200.75C120.75881999999997,199.83333333333334,124.90463999999999,198.91666666666666,129.05213999999998,198C133.19964,197.08333333333334,137.34882,196.16666666666666,141.49915499999997,195.25C145.64949,194.33333333333334,149.80098,193.41666666666666,153.90648000000002,192.5C158.01198,191.58333333333334,162.07149,190.66666666666666,166.001745,189.75C169.932,188.83333333333334,173.73299999999998,187.91666666666666,177.518565,187C181.30413,186.08333333333334,185.07426,185.16666666666666,188.85804,184.25C192.64182000000002,183.33333333333334,196.43925000000002,182.41666666666666,200.102175,181.5C203.7651,180.58333333333334,207.29351999999997,179.66666666666666,210.792225,178.75C214.29092999999997,177.83333333333334,217.75991999999997,176.91666666666666,221.19993,176C224.63994,175.08333333333334,228.05097,174.16666666666666,231.278985,173.25C234.50699999999998,172.33333333333334,237.552,171.41666666666666,240.67049999999998,170.5C243.789,169.58333333333334,246.981,168.66666666666666,250.19505,167.75C253.4091,166.83333333333334,256.6452,165.91666666666666,259.828275,165C263.01135,164.08333333333334,266.14140000000003,163.16666666666666,269.24309999999997,162.25C272.3448,161.33333333333334,275.41814999999997,160.41666666666666,278.47207499999996,159.5C281.526,158.58333333333334,284.5605,157.66666666666666,287.507535,156.75C290.45457000000005,155.83333333333334,293.31414,154.91666666666666,296.21739,154C299.12064000000004,153.08333333333334,302.06757,152.16666666666666,304.942785,151.25C307.818,150.33333333333334,310.6215,149.41666666666666,313.39875,148.5C316.176,147.58333333333334,318.9270000000001,146.66666666666666,321.49950000000007,145.75C324.07200000000006,144.83333333333334,326.46600000000007,143.91666666666666,328.88625,143C331.30649999999997,142.08333333333334,333.753,141.16666666666666,336.27299999999997,140.25C338.793,139.33333333333334,341.3865,138.41666666666666,344.022,137.5C346.6575,136.58333333333334,349.33500000000004,135.66666666666666,351.95191500000004,134.75C354.56883,133.83333333333334,357.12516,132.91666666666666,359.70291,132C362.28066000000007,131.08333333333334,364.87983,130.16666666666666,367.34491500000007,129.25C369.81,128.33333333333334,372.1410000000001,127.41666666666667,374.5665000000001,126.5C376.992,125.58333333333333,379.512,124.66666666666667,381.98475,123.75C384.4575,122.83333333333333,386.883,121.91666666666667,389.2665,121C391.6499999999999,120.08333333333333,393.9914999999999,119.16666666666667,396.17402999999996,118.25C398.35656,117.33333333333333,400.38012,116.41666666666667,402.50637,115.5C404.63262000000003,114.58333333333333,406.86156,113.66666666666667,409.06802999999996,112.75C411.2745,111.83333333333333,413.45849999999996,110.91666666666667,415.674,110C417.8895,109.08333333333333,420.1365,108.16666666666667,422.32585500000005,107.25C424.51521,106.33333333333333,426.64691999999997,105.41666666666667,428.839635,104.5C431.03235,103.58333333333333,433.28606999999994,102.66666666666667,435.469965,101.75C437.65385999999995,100.83333333333333,439.76793,99.91666666666667,441.843465,99C443.91900000000004,98.08333333333333,445.95599999999996,97.16666666666667,447.972,96.25C449.988,95.33333333333333,451.983,94.41666666666667,453.97800000000007,93.5C455.97299999999996,92.58333333333333,457.968,91.66666666666667,459.8475,90.75C461.72700000000003,89.83333333333333,463.491,88.91666666666667,465.28125,88C467.0715,87.08333333333333,468.888,86.16666666666667,470.78272499999997,85.24999999999999C472.67744999999996,84.33333333333333,474.6504,83.41666666666667,476.6664,82.5C478.6824,81.58333333333333,480.74145,80.66666666666667,482.721225,79.75000000000001C484.701,78.83333333333334,486.6015,77.91666666666667,488.484885,77C490.36827,76.08333333333333,492.23454,75.16666666666667,494.09828999999996,74.25C495.96203999999994,73.33333333333333,497.82327000000004,72.41666666666666,499.62538500000005,71.49999999999999C501.4275,70.58333333333333,503.1705,69.66666666666667,504.9502499999999,68.75C506.73,67.83333333333333,508.5465,66.91666666666667,510.32099999999997,66.00000000000001C512.0955,65.08333333333334,513.8280000000001,64.16666666666667,515.466,63.25C517.104,62.333333333333336,518.6475,61.416666666666664,520.2225,60.5C521.7975,59.583333333333336,523.404,58.666666666666664,525.0210000000001,57.75C526.638,56.833333333333336,528.2655,55.916666666666664,529.9454999999999,55C531.6255,54.083333333333336,533.3580000000001,53.166666666666664,535.122,52.25C536.886,51.333333333333336,538.6815,50.416666666666664,540.46125,49.5C542.241,48.583333333333336,544.005,47.666666666666664,545.80134,46.75C547.59768,45.833333333333336,549.42636,44.916666666666664,551.2848600000001,44C553.14336,43.083333333333336,555.0316799999999,42.166666666666664,556.90698,41.25C558.78228,40.333333333333336,560.6445600000001,39.41666666666667,562.45056,38.50000000000001C564.2565599999999,37.583333333333336,566.00628,36.666666666666664,567.74214,35.74999999999999C569.478,34.833333333333336,571.1999999999999,33.916666666666664,572.88,33.00000000000001C574.5600000000001,32.083333333333336,576.198,31.16666666666666,577.8255,30.249999999999996C579.453,29.333333333333325,581.07,28.41666666666666,582.67356,27.5C584.2771200000001,26.58333333333334,585.86724,25.666666666666675,587.44224,24.750000000000004C589.01724,23.83333333333334,590.5771199999999,22.916666666666668,592.1550599999999,22C593.733,21.083333333333332,595.329,20.166666666666668,596.9956649999999,19.25C598.66233,18.333333333333332,600.3996599999999,17.41666666666666,602.0481599999999,16.499999999999993C603.69666,15.583333333333327,605.2563299999999,14.666666666666663,606.8907599999999,13.75C608.52519,12.833333333333337,610.23438,11.916666666666673,611.89338,11.000000000000007C613.55238,10.083333333333337,615.1611899999999,9.166666666666666,616.747845,8.249999999999998C618.3345,7.333333333333331,619.899,6.416666666666669,621.44775,5.500000000000001C622.9965000000001,4.583333333333333,624.5295,3.666666666666662,625.9522499999999,2.7499999999999942C627.375,1.8333333333333268,628.6875,0.9166666666666634,629.34375,0.4583333333333317L630,0" fill="none" stroke="#4dc9f6" stroke-width="2"></path><g fill="none" font-size="10" font-family="sans-serif" text-anchor="end"><path class="domain" stroke="currentColor" d="M-6,220.5H0.5V0.5H-6"></path><g class="tick" opacity="1" transform="translate(0,220.5)"><line stroke="currentColor" x2="-6"></line><text fill="currentColor" x="-9" dy="0.32em">0</text></g><g class="tick" opacity="1" transform="translate(0,193)"><line stroke="currentColor" x2="-6"></line><text fill="currentColor" x="-9" dy="0.32em">10</text></g><g class="tick" opacity="1" transform="translate(0,165.5)"><line stroke="currentColor" x2="-6"></line><text fill="currentColor" x="-9" dy="0.32em">20</text></g><g class="tick" opacity="1" transform="translate(0,138)"><line stroke="currentColor" x2="-6"></line><text fill="currentColor" x="-9" dy="0.32em">30</text></g><g class="tick" opacity="1" transform="translate(0,110.5)"><line stroke="currentColor" x2="-6"></line><text fill="currentColor" x="-9" dy="0.32em">40</text></g><g class="tick" opacity="1" transform="translate(0,83)"><line stroke="currentColor" x2="-6"></line><text fill="currentColor" x="-9" dy="0.32em">50</text></g><g class="tick" opacity="1" transform="translate(0,55.5)"><line stroke="currentColor" x2="-6"></line><text fill="currentColor" x="-9" dy="0.32em">60</text></g><g class="tick" opacity="1" transform="translate(0,28)"><line stroke="currentColor" x2="-6"></line><text fill="currentColor" x="-9" dy="0.32em">70</text></g><g class="tick" opacity="1" transform="translate(0,0.5)"><line stroke="currentColor" x2="-6"></line><text fill="currentColor" x="-9" dy="0.32em">80</text></g></g><g fill="none" font-size="10" font-family="sans-serif" text-anchor="middle" style="transform: translateY(220px);"><path class="domain" stroke="currentColor" d="M0.5,6V0.5H630.5V6"></path><g class="tick" opacity="1" transform="translate(0.5,0)"><line stroke="currentColor" y2="6"></line><text fill="currentColor" y="9" dy="0.71em">0K</text></g><g class="tick" opacity="1" transform="translate(63.5,0)"><line stroke="currentColor" y2="6"></line><text fill="currentColor" y="9" dy="0.71em">100K</text></g><g class="tick" opacity="1" transform="translate(126.5,0)"><line stroke="currentColor" y2="6"></line><text fill="currentColor" y="9" dy="0.71em">200K</text></g><g class="tick" opacity="1" transform="translate(189.5,0)"><line stroke="currentColor" y2="6"></line><text fill="currentColor" y="9" dy="0.71em">300K</text></g><g class="tick" opacity="1" transform="translate(252.5,0)"><line stroke="currentColor" y2="6"></line><text fill="currentColor" y="9" dy="0.71em">400K</text></g><g class="tick" opacity="1" transform="translate(315.5,0)"><line stroke="currentColor" y2="6"></line><text fill="currentColor" y="9" dy="0.71em">500K</text></g><g class="tick" opacity="1" transform="translate(378.5,0)"><line stroke="currentColor" y2="6"></line><text fill="currentColor" y="9" dy="0.71em">600K</text></g><g class="tick" opacity="1" transform="translate(441.5,0)"><line stroke="currentColor" y2="6"></line><text fill="currentColor" y="9" dy="0.71em">700K</text></g><g class="tick" opacity="1" transform="translate(504.5,0)"><line stroke="currentColor" y2="6"></line><text fill="currentColor" y="9" dy="0.71em">800K</text></g><g class="tick" opacity="1" transform="translate(567.5,0)"><line stroke="currentColor" y2="6"></line><text fill="currentColor" y="9" dy="0.71em">900K</text></g><g class="tick" opacity="1" transform="translate(630.5,0)"><line stroke="currentColor" y2="6"></line><text fill="currentColor" y="9" dy="0.71em">1000K</text></g></g><g stroke-width="1" stroke-opacity="0.05" transform="translate(0,220)" fill="none" font-size="10" font-family="sans-serif" text-anchor="middle"><path class="domain" stroke="currentColor" d="M0.5,-220V0.5H630.5V-220"></path><g class="tick" opacity="1" transform="translate(0.5,0)"><line stroke="currentColor" y2="-220"></line><text fill="currentColor" y="3" dy="0.71em"></text></g><g class="tick" opacity="1" transform="translate(126.5,0)"><line stroke="currentColor" y2="-220"></line><text fill="currentColor" y="3" dy="0.71em"></text></g><g class="tick" opacity="1" transform="translate(252.5,0)"><line stroke="currentColor" y2="-220"></line><text fill="currentColor" y="3" dy="0.71em"></text></g><g class="tick" opacity="1" transform="translate(378.5,0)"><line stroke="currentColor" y2="-220"></line><text fill="currentColor" y="3" dy="0.71em"></text></g><g class="tick" opacity="1" transform="translate(504.5,0)"><line stroke="currentColor" y2="-220"></line><text fill="currentColor" y="3" dy="0.71em"></text></g><g class="tick" opacity="1" transform="translate(630.5,0)"><line stroke="currentColor" y2="-220"></line><text fill="currentColor" y="3" dy="0.71em"></text></g></g><g stroke-width="1" stroke-opacity="0.05" fill="none" font-size="10" font-family="sans-serif" text-anchor="end"><path class="domain" stroke="currentColor" d="M630,220.5H0.5V0.5H630"></path><g class="tick" opacity="1" transform="translate(0,220.5)"><line stroke="currentColor" x2="630"></line><text fill="currentColor" x="-3" dy="0.32em"></text></g><g class="tick" opacity="1" transform="translate(0,193)"><line stroke="currentColor" x2="630"></line><text fill="currentColor" x="-3" dy="0.32em"></text></g><g class="tick" opacity="1" transform="translate(0,165.5)"><line stroke="currentColor" x2="630"></line><text fill="currentColor" x="-3" dy="0.32em"></text></g><g class="tick" opacity="1" transform="translate(0,138)"><line stroke="currentColor" x2="630"></line><text fill="currentColor" x="-3" dy="0.32em"></text></g><g class="tick" opacity="1" transform="translate(0,110.5)"><line stroke="currentColor" x2="630"></line><text fill="currentColor" x="-3" dy="0.32em"></text></g><g class="tick" opacity="1" transform="translate(0,83)"><line stroke="currentColor" x2="630"></line><text fill="currentColor" x="-3" dy="0.32em"></text></g><g class="tick" opacity="1" transform="translate(0,55.5)"><line stroke="currentColor" x2="630"></line><text fill="currentColor" x="-3" dy="0.32em"></text></g><g class="tick" opacity="1" transform="translate(0,28)"><line stroke="currentColor" x2="630"></line><text fill="currentColor" x="-3" dy="0.32em"></text></g><g class="tick" opacity="1" transform="translate(0,0.5)"><line stroke="currentColor" x2="630"></line><text fill="currentColor" x="-3" dy="0.32em"></text></g></g></g><text text-anchor="middle" class="axis-label" y="20" x="-110" transform="rotate(-90)">Minutes</text><text text-anchor="middle" class="axis-label" x="350" y="294">Scraped URLs</text></svg>